<?xml version="1.0" encoding="utf-8"?>
<!-- Generator: Adobe Illustrator 17.0.0, SVG Export Plug-In . SVG Version: 6.00 Build 0)  -->
<!DOCTYPE svg PUBLIC "-//W3C//DTD SVG 1.1//EN" "http://www.w3.org/Graphics/SVG/1.1/DTD/svg11.dtd">
<svg version="1.1" id="Layer_1" xmlns="http://www.w3.org/2000/svg" xmlns:xlink="http://www.w3.org/1999/xlink" x="0px" y="0px"
	 width="341.595px" height="386.943px" viewBox="0 0 341.595 386.943" enable-background="new 0 0 341.595 386.943"
	 xml:space="preserve">
<ellipse fill="none" cx="170.297" cy="237.245" rx="148.75" ry="128"/>
<path fill="none" d="M253.047,87.537c-5.638-1.568-7.469,2.007-10.018,6.207c-2.73,4.5-12.829,19.611-12.829,19.611
	s5.221,1.865,10.378,4.108c6.166,2.682,13.135,6.781,13.135,6.781s3.232-26.691,3.521-30.312
	C257.487,90.775,256.714,88.557,253.047,87.537z"/>
<path fill="none" d="M82.047,81.245c5.02-2.067,8.181,1.508,12.681,7.341c4.5,5.833,24.319,30.826,28.819,37.326
	c4.5,6.5,8.333,15.5,4,24.5c-3.276,6.804-11.523,13.112-24.361,9.278c-9.087-2.713-13.458-11.438-14.958-17.771
	s-10.564-43.802-11-47.833C76.562,87.919,79.214,82.411,82.047,81.245z"/>
<path fill="#FFFFFF" d="M278.257,122.228l0.625-10.357c18.9-7.465,32.277-25.882,32.277-47.435
	c0-28.165-22.832-50.997-50.997-50.997s-50.997,22.832-50.997,50.997c0,11.557,3.849,22.212,10.329,30.764
	c-15.434-3.997-31.775-6.153-48.697-6.153c-15.938,0-31.363,1.91-45.999,5.471l-7.064-7.69c6.111-8.917,9.692-19.704,9.692-31.33
	C127.427,24.847,102.58,0,71.929,0c-30.65,0-55.497,24.847-55.497,55.497c0,28.192,21.026,51.457,48.248,55.011l0.638,10.329
	C25.545,148.108,0,190.449,0,237.995c0,82.262,76.469,148.948,170.797,148.948s170.797-66.686,170.797-148.948
	C341.595,191.246,316.892,149.536,278.257,122.228z"/>
<ellipse fill="#926A34" cx="170.297" cy="237.245" rx="148.75" ry="128"/>
<path fill="#A77E42" d="M141.895,163.252c-44.62,14.991-68.927,67.828-55.135,113.33s61.491,71.321,106.538,57.667
	c45.047-13.654,78.764-47.497,66.764-105.997C250.563,181.946,197.605,144.535,141.895,163.252z"/>
<path fill="#CDAC65" d="M129.062,187.752c-28.529,8.144-33.174,49.662-22.895,83.572s38.859,63.633,66.895,53.928
	c39-13.5,52.191-48.149,43.5-82.5C206.062,201.252,166.158,177.162,129.062,187.752z"/>
<g>
	<ellipse fill="#7B9F3E" cx="214.388" cy="230.409" rx="78.174" ry="71.844"/>
	<ellipse fill="#9BB841" cx="219.805" cy="228.917" rx="72.756" ry="64.386"/>
	<ellipse fill="#B5CE5E" cx="224.237" cy="228.096" rx="65.527" ry="58.668"/>
	<ellipse fill="#CBDD76" cx="236.482" cy="206.088" rx="24.594" ry="23.326"/>
</g>
<path fill="#231F20" d="M259.905,121.83c0.417-4.916,0.95-11.251,1.385-16.61c22.627-0.514,40.814-19.004,40.814-41.754
	c0-23.073-18.705-41.778-41.778-41.778c-23.073,0-41.778,18.705-41.778,41.778c0,13.636,6.535,25.743,16.642,33.368
	c-2.406,3.528-5.052,7.432-7.188,10.588c-17.768-5.924-37.049-9.178-57.204-9.178c-19.646,0-38.463,3.089-55.857,8.731
	c-4.524-5.899-9.566-12.367-13.088-16.869c9.61-8.342,15.695-20.638,15.695-34.363c0-25.129-20.371-45.5-45.5-45.5
	c-25.129,0-45.5,20.371-45.5,45.5c0,25.129,20.371,45.5,45.5,45.5c0.246,0,0.489-0.015,0.734-0.019
	c0.927,4.976,2.632,13.973,4.539,23.254c-40.437,25.369-66.773,66.757-66.773,113.515c0,77.182,71.746,139.75,160.25,139.75
	c88.504,0,160.25-62.568,160.25-139.75C331.047,189.573,302.804,146.907,259.905,121.83z M214.388,302.252
	c-43.174,0-78.174-32.166-78.174-71.844c0-39.678,35-71.844,78.174-71.844c35.263,0,65.062,21.462,74.803,50.945
	c2.186,6.125,3.371,12.643,3.371,19.407c0,0.245-0.018,0.487-0.021,0.732c0.003,0.254,0.021,0.505,0.021,0.76
	C292.562,270.087,257.562,302.252,214.388,302.252z"/>
<path fill="#84B6D7" d="M170.297,109.245c-16.945,0-33.225,2.444-48.399,6.935c1.056,1.431,1.927,2.639,2.538,3.534
	c4.394,6.424,12.799,17.857,10.111,28.865c-2.361,9.667-9.326,17.525-26,19.833c-10.833,1.5-20.167-3.667-24.333-15.333
	c-1.259-3.525-2.867-10.017-4.5-17.36c-35.367,23.4-58.167,60.169-58.167,101.526c0,70.692,66.598,128,148.75,128
	c82.152,0,148.75-57.308,148.75-128S252.45,109.245,170.297,109.245z M95.714,207.47c7.364,0,13.333,7.001,13.333,15.637
	s-5.97,15.637-13.333,15.637s-13.333-7.001-13.333-15.637S88.35,207.47,95.714,207.47z M85.088,264.352
	c-0.674-8.61,4.731-16.056,12.072-16.63c7.341-0.575,13.839,5.939,14.513,14.549c0.674,8.61-4.731,16.056-12.072,16.63
	C92.26,279.476,85.762,272.962,85.088,264.352z M122.448,315.16c-6.948,2.439-14.9-2.191-17.759-10.34s0.454-16.732,7.403-19.171
	s14.9,2.191,17.759,10.34S129.396,312.722,122.448,315.16z M213.297,312.745c-49.568,0-89.75-36.825-89.75-82.25
	s40.182-82.25,89.75-82.25c49.568,0,89.75,36.825,89.75,82.25S262.865,312.745,213.297,312.745z"/>
<path fill="#417DB0" d="M315.147,208.017c-4.258,0.337-8.097,3.245-10.6,4.977c-1.044,0.723-1.933,1.911-2.85,3.226
	c0.885,4.636,1.35,9.405,1.35,14.274c0,45.425-40.182,82.25-89.75,82.25c-49.568,0-89.75-36.825-89.75-82.25
	c0-5.883,0.679-11.62,1.96-17.153c-2.824,1.797-6.355,2.661-11.46,3.462c-1.441,0.226-3.583,0.201-6.138-0.003
	c0.727,1.93,1.138,4.06,1.138,6.306c0,8.636-5.97,15.637-13.333,15.637s-13.333-7.001-13.333-15.637
	c0-3.861,1.199-7.389,3.177-10.117c-3.495-0.826-6.584-1.67-8.76-2.412c-8.432-2.874-21,0.667-31,0
	c-5.99-0.399-13.503-4.925-18.567-8.49c-3.7,11.171-5.683,22.964-5.683,35.157c0,70.692,66.598,128,148.75,128
	c82.152,0,148.75-57.308,148.75-128C319.047,227.189,317.696,217.405,315.147,208.017z M85.088,264.352
	c-0.674-8.61,4.731-16.056,12.072-16.63c7.341-0.575,13.839,5.939,14.513,14.549c0.674,8.61-4.731,16.056-12.072,16.63
	C92.26,279.476,85.762,272.962,85.088,264.352z M122.448,315.16c-6.948,2.439-14.9-2.191-17.759-10.34s0.454-16.732,7.403-19.171
	s14.9,2.191,17.759,10.34S129.396,312.722,122.448,315.16z"/>
<path fill="#255C96" d="M307.174,247.745c-2.41-0.238-4.541,0.379-6.451,1.422c-9.227,36.43-44.867,63.578-87.426,63.578
	c-38.777,0-71.809-22.538-84.354-54.099c-2.327-1.517-5.078-2.604-6.904-3.152c-2.5-0.75-7.246,2.5-9.996,4.5
	c-0.178,0.13-0.388,0.266-0.623,0.407c0.112,0.612,0.203,1.233,0.253,1.869c0.674,8.61-4.731,16.056-12.072,16.63
	c-7.341,0.575-13.839-5.939-14.513-14.549c-0.029-0.373-0.032-0.741-0.039-1.109c-3.492-0.673-6.965-1.452-9.753-2.248
	c-5.25-1.5-16.25-7.75-23.25-12.25s-13.993-6.25-21.243-8.03c-3.312-0.813-6.47-2.016-9.251-3.092
	c0.237,70.45,66.611,127.509,148.507,127.619c76.061-0.11,138.967-49.344,147.692-112.8
	C315.126,249.667,310.986,248.121,307.174,247.745z M122.448,315.16c-6.948,2.439-14.9-2.191-17.759-10.34
	s0.454-16.732,7.403-19.171s14.9,2.191,17.759,10.34S129.396,312.722,122.448,315.16z"/>
<path fill="#679FC8" d="M134.062,128.502c-1.527-3.172-6.427-9.632-9.187-13.171c-0.996,0.275-1.986,0.562-2.973,0.854
	c1.054,1.429,1.923,2.635,2.534,3.528c4.394,6.424,12.799,17.857,10.111,28.865c-2.361,9.667-9.326,17.525-26,19.833
	c-10.833,1.5-20.167-3.667-24.333-15.333c-1.258-3.523-2.866-10.011-4.498-17.351c-16.036,10.611-29.493,23.966-39.406,39.259
	c2.305-1.484,5.754-3.463,9.571-4.817c6.833-2.425,18-2.925,22.167-2.425c4.167,0.5,9.5,0.5,15,1.5s15.002,2.04,20.333,2.167
	c7.348,0.174,17.264-2.742,23.098-9.409c5.833-6.667,6.792-10.875,7.458-16.875S136.229,133.002,134.062,128.502z"/>
<path fill="#255C96" d="M170.297,365.245c80.139,0,145.464-54.535,148.619-122.829c-2.26,8.966-5.637,18.865-9.869,27.329
	c-6.5,13-13.5,23.25-19.5,29s-24.75,19.25-31.5,22.25s-28.916,10.368-37.236,11.008c-9.75,0.75-30,1-40,0
	s-26.514-5.258-37.264-7.758s-30-3.75-35.5-5.25s-29.75-13-37.75-18.5s-20.75-14.75-28.25-24.5
	c-5.208-6.771-13.065-10.766-17.383-12.577C38.704,321.556,98.569,365.245,170.297,365.245z"/>
<path fill="#1D437E" d="M33.29,287.173c22.61,45.885,75.44,78.072,137.007,78.072c66.036,0,122.01-37.032,141.436-88.275
	c-5.941,10.181-14.091,22.989-21.686,31.025c-14.201,15.028-33.75,27.25-53,33.785s-44.25,11.465-77,8.215s-66.75-17-86-28.25
	C59.559,313.277,41.393,295.467,33.29,287.173z"/>
<path fill="#96C2DD" d="M140.714,116.745c6.367-1.349,23.833-4.333,41-3s40.167,6.833,48.5,11.5c8.333,4.667,6,9.667,2.833,10.667
	c-3.167,1-16.667-1.667-33.5,0c-16.833,1.667-24.833,5.333-30.167,7.167c-5.333,1.833-17.5,6.446-22.333,2.306
	c-4.833-4.14-4.167-8.985-4.833-13.812s-1.667-7.039-3-9.1C137.881,120.411,137.609,117.403,140.714,116.745z"/>
<path fill="#B1D3E6" d="M155.714,120.548c5.846-0.706,19.333-1.637,27-0.803s18.833,3.5,21,4.5s-1.333,4.333-8,4.833
	s-20.833,2.333-25.417,3.667c-4.583,1.333-10.75,2.833-13.083,0s-3.667-6.833-4.667-8.667
	C151.547,122.245,153.561,120.808,155.714,120.548z"/>
<path fill="#B1D3E6" d="M114.047,216.804c1.631-0.256,3.099-0.519,4.438-0.816c7.883-41.515,47.331-73.076,94.812-73.076
	c45.664,0,83.899,29.19,93.773,68.351c0.949-0.623,1.99-1.249,3.103-1.789c-11.049-40.92-50.975-71.229-98.542-71.229
	c-50.426,0-92.262,34.061-100.215,78.717C112.439,216.963,113.333,216.916,114.047,216.804z"/>
<path fill="#84B6D7" d="M309.547,231.263c0,48.795-43.093,88.352-96.25,88.352s-96.25-39.556-96.25-88.352
	c0-5.21,0.495-10.313,1.438-15.275c-1.338,0.297-2.806,0.56-4.438,0.816c-0.714,0.112-1.608,0.16-2.631,0.158
	c-0.895,5.028-1.369,10.187-1.369,15.45c0,52.007,45.48,94.167,101.583,94.167c56.103,0,101.583-42.16,101.583-94.167
	c0-7.912-1.058-15.595-3.041-22.938c-1.113,0.54-2.153,1.166-3.103,1.789C308.69,217.689,309.547,224.384,309.547,231.263z"/>
<path fill="#2F69A2" d="M135.812,138.586c-1-7.667-5.417-12.417-8.167-17c-1.034-1.724-2.57-3.86-4.105-5.881
	c-0.547,0.156-1.084,0.331-1.629,0.492c1.05,1.424,1.916,2.626,2.526,3.517c4.394,6.424,12.799,17.857,10.111,28.865
	c-2.361,9.667-9.326,17.525-26,19.833c-10.833,1.5-20.167-3.667-24.333-15.333c-1.258-3.521-2.865-10.005-4.495-17.34
	c-9.282,6.143-17.711,13.192-25.076,21.019c3.226-0.428,9.57-0.989,14.572,0.321c7,1.833,9.167,2.167,13.833,5
	c4.667,2.833,11.514,6.841,17.181,7.674c5.667,0.833,10.667,0.667,16.167-1c5.5-1.667,13.75-7.065,16.583-12.583
	C135.812,150.65,136.812,146.252,135.812,138.586z"/>
<ellipse transform="matrix(0.9436 -0.3312 0.3312 0.9436 -92.8363 55.1041)" fill="#417DB0" cx="115.29" cy="299.988" rx="9.098" ry="10.677"/>
<ellipse transform="matrix(0.9436 -0.3311 0.3311 0.9436 -92.8141 54.4889)" fill="#679FC8" cx="113.496" cy="299.616" rx="6.132" ry="8.441"/>
<ellipse transform="matrix(0.9436 -0.3312 0.3312 0.9436 -91.9034 53.1444)" fill="#B1D3E6" cx="110.005" cy="296.271" rx="2.043" ry="2.029"/>
<ellipse transform="matrix(0.9969 -0.0781 0.0781 0.9969 -20.2075 8.3123)" fill="#417DB0" cx="96.232" cy="262.663" rx="9.041" ry="10.875"/>
<ellipse transform="matrix(0.9969 -0.0781 0.0781 0.9969 -20.1991 8.1423)" fill="#679FC8" cx="94.062" cy="262.47" rx="6.118" ry="8.57"/>
<ellipse transform="matrix(0.9969 -0.0781 0.0781 0.9969 -19.8978 7.9327)" fill="#B1D3E6" cx="91.531" cy="258.51" rx="2.014" ry="1.89"/>
<path fill="#417DB0" d="M103.228,221.086c0.168,7.549-4.71,12.5-9.5,12.5c-4.79,0-8.833-4.5-8.514-11.883
	c0.249-5.771,4.059-11.155,8.848-11.284C100.228,210.252,103.1,215.311,103.228,221.086z"/>
<path fill="#679FC8" d="M99.228,221.252c0,5.166-2.5,9.333-6.848,9.409c-3.313,0.058-6-4.188-6-9.354s2.686-9.354,6-9.354
	C95.694,211.953,99.228,216.086,99.228,221.252z"/>
<ellipse fill="#B1D3E6" cx="90.315" cy="217.471" rx="1.934" ry="1.941"/>
<path fill="#255C96" d="M80.437,76.502c7.899-3.179,13.854,3.799,16.13,6.806c8.232-6.786,13.48-17.062,13.48-28.563
	c0-20.435-16.565-37-37-37c-20.434,0-37,16.565-37,37c0,19.984,15.845,36.258,35.656,36.966
	C71.622,86.002,72.838,79.56,80.437,76.502z"/>
<path fill="#417DB0" d="M80.437,76.502c3.712-1.494,6.993-0.743,9.667,0.784c9.643-5.223,16.193-15.429,16.193-27.167
	c0-17.052-13.823-30.875-30.875-30.875c-17.052,0-30.875,13.823-30.875,30.875c0,16.726,13.303,30.336,29.904,30.85
	C75.771,79.167,77.681,77.611,80.437,76.502z"/>
<circle fill="#679FC8" cx="75.353" cy="46.33" r="21.141"/>
<circle fill="#96C2DD" cx="76.947" cy="44.736" r="12.756"/>
<circle fill="#FFFFFF" cx="76.947" cy="44.736" r="5.756"/>
<path fill="#255C96" d="M82.047,81.245c5.02-2.067,8.181,1.508,12.681,7.341c4.5,5.833,24.319,30.826,28.819,37.326
	c4.5,6.5,8.333,15.5,4,24.5c-3.276,6.804-11.523,13.112-24.361,9.278c-9.087-2.713-13.458-11.438-14.958-17.771
	s-10.564-43.802-11-47.833C76.562,87.919,79.214,82.411,82.047,81.245z"/>
<path fill="#679FC8" d="M94.729,88.586c-4.097-5.311-7.088-8.734-11.379-7.748l42.338,72.636c0.736-0.986,1.357-2.018,1.859-3.063
	c4.333-9,0.5-18-4-24.5C119.047,119.411,99.229,94.419,94.729,88.586z"/>
<path fill="#417DB0" d="M105.447,160.27c3.962,0.855,7.443,0.714,10.432-0.096L81.073,81.827c-0.56,0.433-1.096,1.026-1.584,1.752
	L105.447,160.27z"/>
<path fill="#84B6D7" d="M84.065,80.709c-0.576,0.069-1.174,0.22-1.802,0.46l39.514,76.184c2.603-1.899,4.529-4.374,5.759-6.92
	L84.065,80.709z"/>
<path fill="#255C96" d="M79.796,83.156c-1.797,2.38-3.048,6.478-2.567,10.929c0.436,4.032,9.5,41.5,11,47.833
	c1.5,6.333,5.872,15.058,14.958,17.771c1.543,0.461,3.018,0.771,4.427,0.956L79.796,83.156z"/>
<path fill="#255C96" d="M260.016,28.24c-18.798,0-34.036,15.239-34.036,34.037c0,11.322,5.532,21.346,14.036,27.534
	c0.327-0.468,0.619-0.886,0.865-1.232c3.667-5.167,7.5-8.5,14.833-5.667s6.667,6.667,6.333,12.333
	c-0.016,0.277-0.039,0.625-0.065,1.008c17.882-1.019,32.07-15.839,32.07-33.976C294.052,43.478,278.814,28.24,260.016,28.24z"/>
<path fill="#417DB0" d="M262.499,29.394c-15.341,0-27.778,12.372-27.778,27.634c0,10.939,6.391,20.392,15.66,24.87
	c1.561-0.066,3.31,0.232,5.334,1.014c1.206,0.466,2.178,0.962,2.988,1.486c1.242,0.169,2.508,0.264,3.796,0.264
	c15.341,0,27.778-12.372,27.778-27.634C290.277,41.766,277.84,29.394,262.499,29.394z"/>
<circle fill="#679FC8" cx="263.024" cy="55.166" r="19.439"/>
<circle fill="#96C2DD" cx="263.684" cy="53.88" r="11.729"/>
<circle fill="#FFFFFF" cx="264.04" cy="53.453" r="5.411"/>
<path fill="#417DB0" d="M253.047,87.537c-5.638-1.568-7.469,2.007-10.018,6.207c-2.73,4.5-12.829,19.611-12.829,19.611
	s5.221,1.865,10.378,4.108c6.166,2.682,13.135,6.781,13.135,6.781s3.232-26.691,3.521-30.312
	C257.487,90.775,256.714,88.557,253.047,87.537z"/>
<path fill="#84B6D7" d="M249.997,122.153l6.165-32.842c-0.631-0.735-1.573-1.311-2.929-1.715l-8.74,31.693
	C246.51,120.282,248.43,121.298,249.997,122.153z"/>
<path fill="#679FC8" d="M246.364,120.228l7.758-32.319c-0.329-0.136-0.682-0.262-1.075-0.372c-0.31-0.086-0.605-0.151-0.893-0.207
	l-10.729,30.51C243.09,118.589,244.785,119.418,246.364,120.228z"/>
<path fill="#2F6AA2" d="M248.702,87.451c-2.52,0.842-3.929,3.42-5.673,6.294c-2.73,4.5-12.829,19.611-12.829,19.611
	s2.598,0.929,5.937,2.261L248.702,87.451z"/>
<polygon fill="#FFFFFF" points="164.714,218.745 229.714,200.578 164.714,179.245 229.714,195.245 186.047,144.911 233.714,191.245 
	223.015,135.245 240.047,191.245 258.93,131.572 245.047,192.245 291.381,148.245 249.047,195.245 313.714,181.911 248.381,199.911 
	312.047,221.036 246.047,205.245 292.047,253.245 243.714,210.578 258.047,273.911 237.714,210.578 217.964,273.911 233.381,207.47 
	183.32,255.911 228.381,205.911 "/>
</svg>
